<svg xmlns="http://www.w3.org/2000/svg" viewBox="0 0 36 25" version="1.1"><style>.style0{fill:	none;fill-rule:	evenodd;}.style1{fill:	#FFFFFF;}</style><g class="style0"><path d="M20.0422888 15.6 C17.4147008 15.6 15.2 15.7 13.4 16 C11.5347048 16.2 9.9 16.7 8.5 17.5 C7.0966687 18.2 5.8 19.3 4.6 20.6 C3.34756884 22 2.1 23.8 0.7 26 C0.912262542 22.6 1.7 19.5 3.1 16.7 C3.70005738 15.5 4.5 14.4 5.4 13.2 C6.31161228 12.1 7.5 11.1 8.8 10.2 C10.2209333 9.4 11.8 8.7 13.6 8.1 C15.4760854 7.6 17.6 7.3 20 7.3 L20.0422888 0 L36 11.7 L20.0422888 23.9 L20.0422888 15.6 Z" class="style1"/></g></svg>