<svg xmlns="http://www.w3.org/2000/svg" xmlns:xlink="http://www.w3.org/1999/xlink" version="1.1" x="0px" y="0px" viewBox="0 0 64 64" style="enable-background:new 0 0 64 64;" xml:space="preserve"><g><path d="M56 55.399V34.544c0-1.304-0.744-2.958-1.82-3.695l-20.306-13.99c-1.076-0.737-2.822-0.731-3.894 0.012l-19.018 13.2 C9.891 30.8 9 32.5 9 33.757v21.642C9 56.7 10.1 58 11.4 58h42.496C55.205 58 56 56.7 56 55.399z M32.804 52.4 l-0.176 0.102C21.666 48.1 17.4 37.8 22.3 33.417C27.097 29 32.6 35 32.6 35h0.04c0 0 5.531-6.008 10.359-1.583 C47.854 37.8 43.8 48 32.8 52.387z"/><path d="M59.688 25.787L33.875 8.149c-1.077-0.736-2.812-0.722-3.877 0.031L4.664 26.084C3.6 26.8 3.3 28.3 4.1 29.4 l0.062 0.088c0.753 1.1 2.2 1.3 3.3 0.565l22.462-15.875c1.065-0.753 2.803-0.77 3.883-0.04l23.177 15.7 c1.08 0.7 2.5 0.4 3.278-0.632l0.061-0.09C61.045 28 60.8 26.5 59.7 25.787z"/><path d="M48.074 15.891C49.128 16.7 50 16.2 50 14.87V8.967C50 7.7 48.9 7 47.6 7h-3.935 c-1.304 0-2.361 0.772-2.361 1.967s0.855 2.7 1.9 3.454L48.074 15.891z"/></g></svg>