<svg xmlns="http://www.w3.org/2000/svg" viewBox="0 0 39 74" version="1.1"><style>.style0{fill: none;fill-rule: evenodd;}.style1{fill:  #FFFFFF;}</style><g class="style0"><path d="M19.9998338 31 C15.0294786 31 11 27 11 22 C11 17 15 13 20 13 C24.9705214 13 29 17 29 22 C29 27 25 31 20 31 L19.9998338 31 Z M19.5 0 C7.64941703 0.1 0 8 0 19.9 C0 29.7 6.5 38.2 10.2 51 C12.3138645 58.4 13.5 67.4 14.1 74 L24.9480061 74 C25.5460544 67.4 26.7 58.4 28.8 51 C32.5058212 38.2 39 29.7 39 19.9 C39 8 31.4 0.1 19.5 0 L19.5 0 Z" class="style1"/></g></svg>